<svg width="64" height="64" viewBox="0 0 64 64" fill="none" xmlns="http://www.w3.org/2000/svg">
<path d="M31.3673 16.0001V22.8156C31.9191 22.8335 32.4729 22.8335 33.0254 22.8156V16L31.3673 16.0001ZM26.3824 23.434V25.5087H38.0106V23.434C34.1586 24.2911 30.1965 24.2827 26.3824 23.434ZM16 25.7948L16.6455 28.3261L25.7778 28.8712L26.4278 28.9089L26.3824 29.5424C26.2031 32.1062 26.7457 34.8396 28.1484 37.1132L28.6752 27.2509L16 25.7948ZM48 25.7948L35.7134 27.207L36.21 36.4881C37.347 34.3488 37.7807 31.8757 37.6176 29.5424L37.5745 28.9092L38.2222 28.8712L47.3547 28.3263L48 25.7948ZM29.9944 26.767L29.258 40.5451V43.5203L32.3239 48L35.2967 43.6002L34.3985 26.767H32.8419V43.6633H31.5508V26.767H29.9944ZM16.9562 29.6055C17.1994 30.362 17.5119 31.156 17.8782 31.958L25.0978 31.3814C25.073 30.9511 25.0666 30.5202 25.0783 30.0895L16.9562 29.6055ZM47.0436 29.6055L38.9215 30.0895C38.9334 30.5172 38.927 30.9492 38.9022 31.3814L46.1217 31.958C46.4881 31.156 46.8007 30.362 47.0436 29.6055ZM25.2231 32.6356L18.4719 33.1743C18.8508 33.9045 19.2607 34.619 19.7004 35.316L25.5081 34.0853C25.3883 33.6069 25.2932 33.1232 25.2231 32.6356ZM38.7769 32.6356C38.7075 33.123 38.6133 33.6069 38.4941 34.0853L44.2996 35.316C44.7393 34.619 45.1492 33.9045 45.5281 33.1743L38.7769 32.6356ZM25.8687 35.2973L20.4496 36.4461C20.9119 37.1061 21.3938 37.7288 21.8831 38.2957L26.3694 36.522C26.1817 36.1221 26.0146 35.7133 25.8687 35.2973ZM38.1316 35.2973C37.9854 35.7133 37.8183 36.1221 37.6306 36.522L42.1169 38.2957C42.6062 37.729 43.0881 37.1061 43.5506 36.4461L38.1316 35.2973Z" fill="url(#paint0_linear_1_5)"/>
<defs>
<linearGradient id="paint0_linear_1_5" x1="48" y1="32" x2="16" y2="32" gradientUnits="userSpaceOnUse">
<stop stop-color="#2A35B3"/>
<stop offset="1" stop-color="white"/>
</linearGradient>
</defs>
</svg>
