<svg width="200" height="200" viewBox="0 0 200 200" fill="none" xmlns="http://www.w3.org/2000/svg">
<rect width="200" height="200" fill="white"/>
<circle cx="100" cy="100" r="50" fill="#2A35B3" fill-opacity="0.51"/>
<g filter="url(#filter0_d_2_25)">
<path d="M99.6944 56.2502V76.0197C101.255 76.0717 102.82 76.0719 104.382 76.0197V56.25L99.6944 56.2502ZM85.6016 77.8139V83.832H118.475V77.8139C107.586 80.3002 96.3847 80.2756 85.6016 77.8139ZM56.25 84.6621L58.0748 92.0047L83.8926 93.5854L85.7298 93.6951L85.6018 95.5322C85.0952 102.969 86.6286 110.898 90.5946 117.493L92.0839 88.8857L56.25 84.6621ZM146.716 84.6621L111.981 88.7578L113.385 115.68C116.599 109.474 117.826 102.301 117.365 95.5324L117.243 93.6955L119.074 93.5855L144.892 92.0049L146.716 84.6621ZM95.813 87.482L93.7315 127.448V136.078L102.399 149.072L110.803 136.31L108.264 87.482H103.863V136.493H100.213V87.4818L95.813 87.482ZM58.9533 95.7158C59.6408 97.91 60.5242 100.213 61.5598 102.539L81.97 100.867C81.9001 99.6191 81.8818 98.3688 81.9153 97.1193L58.9533 95.7158ZM144.012 95.7158L121.051 97.1193C121.085 98.3602 121.066 99.6131 120.996 100.867L141.406 102.539C142.442 100.213 143.326 97.9102 144.012 95.7158ZM82.3241 104.505L63.2381 106.067C64.3093 108.186 65.468 110.258 66.7112 112.28L83.1297 108.71C82.7911 107.323 82.5223 105.919 82.3241 104.505ZM120.642 104.505C120.446 105.919 120.179 107.322 119.843 108.71L136.255 112.28C137.498 110.258 138.657 108.186 139.728 106.067L120.642 104.505ZM84.1495 112.226L68.8291 115.558C70.1366 117.472 71.4991 119.279 72.8819 120.923L85.5651 115.778C85.0342 114.618 84.562 113.433 84.1495 112.226ZM118.818 112.226C118.405 113.432 117.932 114.618 117.402 115.778L130.085 120.923C131.467 119.279 132.83 117.473 134.137 115.558L118.818 112.226Z" fill="url(#paint0_linear_2_25)"/>
</g>
<defs>
<filter id="filter0_d_2_25" x="52.25" y="56.25" width="98.4662" height="100.822" filterUnits="userSpaceOnUse" color-interpolation-filters="sRGB">
<feFlood flood-opacity="0" result="BackgroundImageFix"/>
<feColorMatrix in="SourceAlpha" type="matrix" values="0 0 0 0 0 0 0 0 0 0 0 0 0 0 0 0 0 0 127 0" result="hardAlpha"/>
<feOffset dy="4"/>
<feGaussianBlur stdDeviation="2"/>
<feComposite in2="hardAlpha" operator="out"/>
<feColorMatrix type="matrix" values="0 0 0 0 0 0 0 0 0 0 0 0 0 0 0 0 0 0 0.25 0"/>
<feBlend mode="normal" in2="BackgroundImageFix" result="effect1_dropShadow_2_25"/>
<feBlend mode="normal" in="SourceGraphic" in2="effect1_dropShadow_2_25" result="shape"/>
</filter>
<linearGradient id="paint0_linear_2_25" x1="146.716" y1="102.661" x2="56.25" y2="102.661" gradientUnits="userSpaceOnUse">
<stop stop-color="#2A35B3"/>
<stop offset="1"/>
</linearGradient>
</defs>
</svg>
