<svg width="200" height="200" viewBox="0 0 200 200" fill="none" xmlns="http://www.w3.org/2000/svg">
<path d="M98.0227 50.0002V71.2987C99.7471 71.3546 101.478 71.3546 103.204 71.2987V50L98.0227 50.0002ZM82.4451 73.2312V79.7146H118.783V73.2312C106.746 75.9097 94.3639 75.8834 82.4451 73.2312ZM50 80.6088L52.0171 88.5191L80.5556 90.2226L82.5867 90.3404L82.4451 92.32C81.8848 100.332 83.5802 108.874 87.9637 115.979L89.6101 85.1592L50 80.6088ZM150 80.6088L111.604 85.0218L113.156 114.025C116.709 107.34 118.065 99.6115 117.555 92.32L117.42 90.3411L119.444 90.2226L147.983 88.5198L150 80.6088ZM93.7325 83.6469L91.4312 126.704V136.001L101.012 150L110.302 136.251L107.495 83.6469H102.631V136.448H98.5962V83.6469H93.7325ZM52.9882 92.5173C53.7482 94.8814 54.7247 97.3626 55.8693 99.8687L78.4305 98.0669C78.3531 96.7222 78.3331 95.3756 78.3697 94.0296L52.9882 92.5173ZM147.011 92.5173L121.63 94.0296C121.667 95.3662 121.647 96.7162 121.57 98.0669L144.13 99.8687C145.275 97.3626 146.252 94.8814 147.011 92.5173ZM78.8222 101.986L57.7246 103.67C58.9087 105.952 60.1896 108.184 61.5637 110.363L79.7127 106.516C79.3383 105.022 79.0412 103.51 78.8222 101.986ZM121.178 101.986C120.961 103.509 120.667 105.022 120.294 106.516L138.436 110.363C139.81 108.184 141.091 105.952 142.275 103.67L121.178 101.986ZM80.8395 110.304L63.905 113.894C65.3496 115.957 66.8557 117.902 68.3846 119.674L82.4044 114.131C81.8178 112.881 81.2955 111.604 80.8395 110.304ZM119.161 110.304C118.704 111.604 118.182 112.881 117.596 114.131L131.615 119.674C133.144 117.903 134.65 115.957 136.096 113.894L119.161 110.304Z" fill="url(#paint0_linear_1_7)"/>
<defs>
<linearGradient id="paint0_linear_1_7" x1="150" y1="100" x2="50" y2="100" gradientUnits="userSpaceOnUse">
<stop stop-color="#2A35B3"/>
<stop offset="1" stop-color="white"/>
</linearGradient>
</defs>
</svg>
