<svg width="32" height="32" viewBox="0 0 32 32" fill="none" xmlns="http://www.w3.org/2000/svg">
<rect width="32" height="32" fill="white"/>
<circle cx="16" cy="16" r="8" fill="#2A35B3" fill-opacity="0.51"/>
<g filter="url(#filter0_d_1_2)">
<path d="M15.9511 9.00003V12.1632C16.2007 12.1715 16.4512 12.1715 16.7011 12.1632V9L15.9511 9.00003ZM13.6963 12.4502V13.4131H18.9561V12.4502C17.2137 12.848 15.4215 12.8441 13.6963 12.4502ZM9 13.5459L9.29197 14.7207L13.4228 14.9737L13.7168 14.9912L13.6963 15.2852C13.6152 16.4751 13.8606 17.7437 14.4951 18.7989L14.7334 14.2217L9 13.5459ZM23.4746 13.5459L17.917 14.2013L18.1416 18.5088C18.6559 17.5159 18.8521 16.3681 18.7783 15.2852L18.7588 14.9913L19.0518 14.9737L23.1827 14.7208L23.4746 13.5459ZM15.3301 13.9971L14.997 20.3917V21.7725L16.3838 23.8516L17.7285 21.8096L17.3222 13.9971H16.6181V21.8389H16.0341V13.9971L15.3301 13.9971ZM9.43253 15.3145C9.54253 15.6656 9.68388 16.0341 9.84956 16.4063L13.1152 16.1387C13.104 15.939 13.1011 15.739 13.1064 15.5391L9.43253 15.3145ZM23.042 15.3145L19.3681 15.5391C19.3735 15.7376 19.3706 15.9381 19.3594 16.1387L22.625 16.4063C22.7907 16.0341 22.9321 15.6656 23.042 15.3145ZM13.1719 16.7208L10.1181 16.9708C10.2895 17.3097 10.4749 17.6413 10.6738 17.9648L13.3008 17.3936C13.2466 17.1716 13.2036 16.9471 13.1719 16.7208ZM19.3027 16.7208C19.2713 16.947 19.2287 17.1716 19.1748 17.3936L21.8008 17.9648C21.9997 17.6413 22.1851 17.3097 22.3565 16.9708L19.3027 16.7208ZM13.4639 17.9561L11.0127 18.4893C11.2218 18.7956 11.4398 19.0846 11.6611 19.3477L13.6904 18.5245C13.6055 18.3389 13.5299 18.1492 13.4639 17.9561ZM19.0108 17.9561C18.9447 18.1492 18.8691 18.3389 18.7842 18.5245L20.8135 19.3477C21.0348 19.0847 21.2528 18.7956 21.462 18.4893L19.0108 17.9561Z" fill="url(#paint0_linear_1_2)"/>
</g>
<defs>
<filter id="filter0_d_1_2" x="5" y="9" width="22.4746" height="22.8516" filterUnits="userSpaceOnUse" color-interpolation-filters="sRGB">
<feFlood flood-opacity="0" result="BackgroundImageFix"/>
<feColorMatrix in="SourceAlpha" type="matrix" values="0 0 0 0 0 0 0 0 0 0 0 0 0 0 0 0 0 0 127 0" result="hardAlpha"/>
<feOffset dy="4"/>
<feGaussianBlur stdDeviation="2"/>
<feComposite in2="hardAlpha" operator="out"/>
<feColorMatrix type="matrix" values="0 0 0 0 0 0 0 0 0 0 0 0 0 0 0 0 0 0 0.25 0"/>
<feBlend mode="normal" in2="BackgroundImageFix" result="effect1_dropShadow_1_2"/>
<feBlend mode="normal" in="SourceGraphic" in2="effect1_dropShadow_1_2" result="shape"/>
</filter>
<linearGradient id="paint0_linear_1_2" x1="23.4746" y1="16.4258" x2="9" y2="16.4258" gradientUnits="userSpaceOnUse">
<stop stop-color="#2A35B3"/>
<stop offset="1"/>
</linearGradient>
</defs>
</svg>
