<svg width="32" height="32" viewBox="0 0 32 32" fill="none" xmlns="http://www.w3.org/2000/svg">
<path d="M15.6836 8.00003V11.4078C15.9595 11.4167 16.2364 11.4167 16.5127 11.4078V8L15.6836 8.00003ZM13.1912 11.717V12.7543H19.0053V11.717C17.0793 12.1455 15.0982 12.1413 13.1912 11.717ZM8 12.8974L8.32274 14.1631L12.8889 14.4356L13.2139 14.4545L13.1912 14.7712C13.1016 16.0531 13.3728 17.4198 14.0742 18.5566L14.3376 13.6255L8 12.8974ZM24 12.8974L17.8567 13.6035L18.105 18.2441C18.6735 17.1744 18.8904 15.9378 18.8088 14.7712L18.7872 14.4546L19.1111 14.4356L23.6773 14.1632L24 12.8974ZM14.9972 13.3835L14.629 20.2726V21.7601L16.1619 24L17.6483 21.8001L17.1992 13.3835H16.4209V21.8317H15.7754V13.3835H14.9972ZM8.47811 14.8028C8.5997 15.181 8.75595 15.578 8.93909 15.979L12.5489 15.6907C12.5365 15.4756 12.5333 15.2601 12.5392 15.0447L8.47811 14.8028ZM23.5218 14.8028L19.4607 15.0447C19.4667 15.2586 19.4635 15.4746 19.4511 15.6907L23.0609 15.979C23.244 15.578 23.4003 15.181 23.5218 14.8028ZM12.6116 16.3178L9.23593 16.5871C9.42539 16.9522 9.63033 17.3095 9.85019 17.658L12.754 17.0426C12.6941 16.8035 12.6466 16.5616 12.6116 16.3178ZM19.3884 16.3178C19.3537 16.5615 19.3066 16.8035 19.2471 17.0426L22.1498 17.658C22.3697 17.3095 22.5746 16.9522 22.7641 16.5871L19.3884 16.3178ZM12.9343 17.6486L10.2248 18.2231C10.4559 18.553 10.6969 18.8644 10.9415 19.1478L13.1847 18.261C13.0908 18.061 13.0073 17.8567 12.9343 17.6486ZM19.0658 17.6486C18.9927 17.8567 18.9092 18.061 18.8153 18.261L21.0585 19.1478C21.3031 18.8645 21.5441 18.553 21.7753 18.2231L19.0658 17.6486Z" fill="url(#paint0_linear_1_2)"/>
<defs>
<linearGradient id="paint0_linear_1_2" x1="24" y1="16" x2="8" y2="16" gradientUnits="userSpaceOnUse">
<stop stop-color="#2A35B3"/>
<stop offset="1" stop-color="white"/>
</linearGradient>
</defs>
</svg>
