<svg width="64" height="64" viewBox="0 0 64 64" fill="none" xmlns="http://www.w3.org/2000/svg">
<circle cx="32" cy="32" r="16" fill="#2A35B3" fill-opacity="0.51"/>
<g filter="url(#filter0_d_2_22)">
<path d="M31.9022 18.0001V24.3263C32.4015 24.3429 32.9024 24.343 33.4022 24.3263V18L31.9022 18.0001ZM27.3925 24.9004V26.8263H37.9121V24.9004C34.4274 25.6961 30.8431 25.6882 27.3925 24.9004ZM18 27.0919L18.5839 29.4415L26.8456 29.9473L27.4335 29.9824L27.3926 30.5703C27.2305 32.9501 27.7211 35.4874 28.9903 37.5978L29.4668 28.4434L18 27.0919ZM46.9492 27.0919L35.834 28.4025L36.2832 37.0177C37.3118 35.0317 37.7042 32.7362 37.5567 30.5704L37.5176 29.9826L38.1035 29.9474L46.3653 29.4416L46.9492 27.0919ZM30.6602 27.9943L29.9941 40.7833V43.545L32.7675 47.7031L35.4569 43.6192L34.6444 27.9943H33.2363V43.6778H32.0683V27.9942L30.6602 27.9943ZM18.8651 30.6291C19.0851 31.3312 19.3678 32.0682 19.6991 32.8126L26.2304 32.2774C26.208 31.8781 26.2022 31.478 26.2129 31.0782L18.8651 30.6291ZM46.084 30.6291L38.7363 31.0782C38.747 31.4753 38.7411 31.8762 38.7188 32.2774L45.2501 32.8126C45.5813 32.0682 45.8642 31.3313 46.084 30.6291ZM26.3437 33.4416L20.2362 33.9416C20.579 34.6194 20.9498 35.2826 21.3476 35.9297L26.6015 34.7872C26.4931 34.3432 26.4071 33.8941 26.3437 33.4416ZM38.6054 33.4416C38.5427 33.8941 38.4573 34.3432 38.3497 34.7872L43.6016 35.9297C43.9994 35.2827 44.3702 34.6194 44.7129 33.9416L38.6054 33.4416ZM26.9278 35.9122L22.0253 36.9786C22.4437 37.5911 22.8797 38.1693 23.3222 38.6954L27.3808 37.049C27.2109 36.6779 27.0598 36.2984 26.9278 35.9122ZM38.0216 35.9122C37.8895 36.2984 37.7383 36.6778 37.5685 37.0489L41.6271 38.6954C42.0696 38.1694 42.5056 37.5912 42.9239 36.9787L38.0216 35.9122Z" fill="url(#paint0_linear_2_22)"/>
</g>
<defs>
<filter id="filter0_d_2_22" x="14" y="18" width="36.9492" height="37.7031" filterUnits="userSpaceOnUse" color-interpolation-filters="sRGB">
<feFlood flood-opacity="0" result="BackgroundImageFix"/>
<feColorMatrix in="SourceAlpha" type="matrix" values="0 0 0 0 0 0 0 0 0 0 0 0 0 0 0 0 0 0 127 0" result="hardAlpha"/>
<feOffset dy="4"/>
<feGaussianBlur stdDeviation="2"/>
<feComposite in2="hardAlpha" operator="out"/>
<feColorMatrix type="matrix" values="0 0 0 0 0 0 0 0 0 0 0 0 0 0 0 0 0 0 0.25 0"/>
<feBlend mode="normal" in2="BackgroundImageFix" result="effect1_dropShadow_2_22"/>
<feBlend mode="normal" in="SourceGraphic" in2="effect1_dropShadow_2_22" result="shape"/>
</filter>
<linearGradient id="paint0_linear_2_22" x1="46.9492" y1="32.8516" x2="18" y2="32.8516" gradientUnits="userSpaceOnUse">
<stop stop-color="#2A35B3"/>
<stop offset="1"/>
</linearGradient>
</defs>
</svg>
