<svg width="15" height="11" viewBox="0 0 15 11" fill="none" xmlns="http://www.w3.org/2000/svg">
<path d="M12.8908 0.769907C12.7637 0.232443 12.225 -0.100234 11.6876 0.0268513L2.92907 2.09783C2.39161 2.22492 2.05893 2.76364 2.18602 3.30111C2.3131 3.83857 2.85182 4.17125 3.38929 4.04416L11.1746 2.20329L13.0155 9.98861C13.1426 10.5261 13.6813 10.8587 14.2188 10.7317C14.7562 10.6046 15.0889 10.0659 14.9618 9.52839L12.8908 0.769907ZM0.409036 7.51275C1.51831 8.32537 2.52204 9.00818 3.47569 9.36816C4.49665 9.75355 5.50635 9.78658 6.54282 9.2745C7.50076 8.80122 8.3912 7.90344 9.34193 6.67195C10.3053 5.42404 11.4104 3.72466 12.7685 1.52544L11.0668 0.474596C9.71061 2.67079 8.65275 4.29184 7.75882 5.44976C6.8522 6.62411 6.1909 7.21759 5.65692 7.48141C5.20147 7.70643 4.77907 7.72241 4.182 7.49703C3.51762 7.24624 2.71738 6.72454 1.59096 5.89936L0.409036 7.51275Z" fill="#31A8FF"/>
</svg>
