<svg width="1541" height="937" viewBox="0 0 1541 937" fill="none" xmlns="http://www.w3.org/2000/svg">
<g filter="url(#filter0_d_1_12)">
<path fill-rule="evenodd" clip-rule="evenodd" d="M173.859 30C173.859 13.4315 187.291 0 203.859 0H1506.65C1523.22 0 1536.65 13.4314 1536.65 30L1536.65 768.339C1536.65 784.907 1523.22 798.339 1506.65 798.339H1396.79C1380.23 798.339 1366.79 811.77 1366.79 828.339V899C1366.79 915.569 1353.36 929 1336.79 929L34 929C17.4315 929 4 915.568 4 899V160.661C4 144.092 17.4314 130.661 34 130.661H143.859C160.428 130.661 173.859 117.23 173.859 100.661V30Z" fill="#020F1D"/>
</g>
<defs>
<filter id="filter0_d_1_12" x="0" y="0" width="1540.65" height="937" filterUnits="userSpaceOnUse" color-interpolation-filters="sRGB">
<feFlood flood-opacity="0" result="BackgroundImageFix"/>
<feColorMatrix in="SourceAlpha" type="matrix" values="0 0 0 0 0 0 0 0 0 0 0 0 0 0 0 0 0 0 127 0" result="hardAlpha"/>
<feOffset dy="4"/>
<feGaussianBlur stdDeviation="2"/>
<feComposite in2="hardAlpha" operator="out"/>
<feColorMatrix type="matrix" values="0 0 0 0 0 0 0 0 0 0 0 0 0 0 0 0 0 0 0.25 0"/>
<feBlend mode="normal" in2="BackgroundImageFix" result="effect1_dropShadow_1_12"/>
<feBlend mode="normal" in="SourceGraphic" in2="effect1_dropShadow_1_12" result="shape"/>
</filter>
</defs>
</svg>
